<svg width="512" height="512" viewBox="0 0 135.5 135.5" xmlns="http://www.w3.org/2000/svg"><path d="M6 90.4h.1zm19.1-30.7c0 1.3.5 4.8.5 4.8s2.7-1.5 5.2-2.6c-.9-1.6-1.7-4.5-1.7-4.5l2.3-1 2.5 4.3 8-2.2a32.5 32.5 0 0 1-4-4.4l4-1.2s3.1 3 4.8 3.9c2.1-.7 6-2.2 8-3.2-1.7-.8-3.3-1.8-4.3-2.9l4.4-1.4s2 1.5 4.5 2.2c2.6-1.6 6-4 6-4l-3-1.3 2.5-1.5c1.2.3 3.4.5 3.4.5s1.5-1.2 3-2.7c0 0-5.2.4-8.6-1.6-3.4-2-10.6-1.6-17.7 1.6a55.7 55.7 0 0 1-27.4 4.9c-7.6-1.5-13.2 6-12.3 13.5.8 7.4.7 8.2-.3 10.6-1.7 3.9-2.8 4.2-.3 10.8 2.3 6.1 1.6 7.9 1.5 8.1.1-.2 1.8-3.5 4.8-5.8C14 82.2 19.4 78 20.7 74c1.2-4 1.6-12.3 4.4-14.3zM86.2 45c3.7-.8 10-2 16.7-5.8-1.5.6-1.8-.5-.7-1.5 3.7-3 7-4.7 9.8-7.6 1.2-1.4 2.2-2.7 2.7-4l.7-2.2A84.7 84.7 0 0 1 75 42.7c-1.4 1-2.8 2.5-4.2 3.5 4.3.9 9.7 0 15.5-1.2zm-7.9 3.4c-2 .2-6.6.4-10-.1a57 57 0 0 1-7 5.2 53 53 0 0 0 23.4 2c5.5-.3 17.7-1.9 25.6-5.3-2.3.6-2.7-1.3-.9-2.6 6-4.1 11-6 15.4-10.2 2-2 3.6-3.8 4.4-6 .5-1.1.7-2.3 1.4-3.4a107.5 107.5 0 0 1-35.7 17c-5.5 1.3-10.5 2.6-16.6 3.4zM32.7 90.5a91 91 0 0 1-7-11.5 21 21 0 0 1-1.7-4.4l-.3-1.5a28.4 28.4 0 0 1-6.5 11.5c.4 1.5.8 3 1.4 4.3a51.4 51.4 0 0 0 13.1 17.9c-1-1.6.1-3.5 1.8-2.7 5.5 2.5 8.5 5.6 13.6 6.8 2.4.6 4.7.9 7 .3 1.2-.3 2.4-.7 3.6-.8a59.8 59.8 0 0 1-25-19.9zm17.9-6.2c-4.1-3.1-8-6.4-11.6-10.2a51.1 51.1 0 0 1-6.6-9.3c-3 1-4.6 1.8-6.1 2.7 1 7.2 3.7 14.4 8.4 19.9a58.8 58.8 0 0 0 20.3 15c-1.7-1.4-1-3.8 1-3.6 6.9.9 11.2 3.3 17.2 2.9a17 17 0 0 0 7.7-2c1.2-.8 2.3-1.7 3.6-2.2a68.4 68.4 0 0 1-34-13.2Zm70.3-34.9a112.8 112.8 0 0 1-33 8.4c-6.5.5-12.2.6-18.9 0a30.5 30.5 0 0 1-10.9-2.6c-2.8 1-7.2 2.8-10 4a49 49 0 0 0 26.7 11.4c10.1 1 22 0 31.8-2.8-2.8.2-4-2-1.7-3.3 7.5-4 13.7-5.2 19.3-9.7 2.7-2 4.9-4.2 6.1-6.8.7-1.4 1.1-2.8 2-4.1-3.6 2-7.4 4-11.4 5.5zm-13.4 21c4.2-1 9.2-3.2 13.2-4.8-1.2 1.4-1.9 3-2.8 4.6-1.8 2.9-4.4 5-7.3 6.9-6.5 4-12.8 3.9-21 7-2.4 1-1.7 4.1 1 4.6-10.2.9-22-.9-31.6-4.6a47.8 47.8 0 0 1-23.3-20.2c3.5-1.3 5.9-2.3 9.2-3.4 2.5 2 9.2 5.9 11.3 6.9A58 58 0 0 0 74.8 73a97.1 97.1 0 0 0 32.7-2.7" style="fill:#d72312;fill-opacity:1;fill-rule:nonzero;stroke:#d8d8d8;stroke-width:1.011;stroke-miterlimit:4;stroke-dasharray:none;stroke-opacity:1"/></svg>
