<?xml version="1.0" standalone="no"?>
<!DOCTYPE svg PUBLIC "-//W3C//DTD SVG 20010904//EN"
 "http://www.w3.org/TR/2001/REC-SVG-20010904/DTD/svg10.dtd">
<svg version="1.0" xmlns="http://www.w3.org/2000/svg"
 width="700.000000pt" height="700.000000pt" viewBox="0 0 700.000000 700.000000"
 preserveAspectRatio="xMidYMid meet">
<metadata>
Created by potrace 1.14, written by Peter Selinger 2001-2017
</metadata>
<g transform="translate(0.000000,700.000000) scale(0.100000,-0.100000)"
fill="#000000" stroke="none">
<path d="M5904 5747 c-283 -241 -769 -528 -1139 -672 -250 -98 -562 -195 -735
-229 -14 -3 -34 -7 -45 -9 -11 -3 -44 -8 -72 -12 -55 -7 -69 -15 -168 -100
-33 -29 -82 -68 -108 -87 -54 -41 -56 -40 66 -59 71 -11 334 -8 392 4 11 3 45
8 75 12 199 26 697 143 785 185 11 5 55 23 97 40 43 16 123 52 178 80 92 46
99 52 91 72 -5 13 -14 23 -21 23 -25 0 -21 22 7 40 15 10 33 24 38 30 6 7 66
52 135 101 232 165 313 236 398 349 46 63 51 71 87 172 21 58 21 63 5 78 -22
20 -20 20 -66 -18z"/>
<path d="M6700 5552 c-14 -9 -27 -20 -30 -23 -18 -23 -369 -240 -525 -324
-451 -243 -850 -401 -1324 -521 -221 -56 -503 -118 -581 -128 -51 -7 -96 -14
-125 -21 -81 -17 -357 -24 -508 -12 l-89 7 -71 -58 c-107 -86 -228 -176 -281
-207 -25 -15 -46 -29 -46 -30 0 -15 185 -80 285 -100 44 -9 87 -18 95 -20 131
-27 852 -27 1030 0 14 2 50 6 80 10 122 14 152 18 315 46 223 39 207 36 367
75 143 35 394 116 411 133 14 14 -11 53 -32 46 -9 -3 -25 1 -36 8 -17 13 -17
15 -1 43 20 33 165 130 431 288 99 58 215 132 258 165 181 135 324 300 375
431 75 192 71 178 52 195 -20 18 -19 18 -50 -3z"/>
<path d="M2807 4969 c-142 -15 -323 -68 -512 -149 -150 -64 -391 -146 -481
-164 -10 -2 -49 -11 -87 -20 -37 -9 -82 -18 -100 -21 -17 -3 -39 -8 -47 -10
-24 -7 -71 -14 -128 -21 -29 -3 -63 -8 -75 -11 -43 -10 -373 -12 -422 -2 -80
16 -199 18 -260 3 -255 -59 -449 -322 -456 -619 -2 -62 6 -159 17 -235 2 -14
6 -85 8 -159 5 -146 2 -160 -71 -321 -51 -112 -56 -131 -56 -189 1 -80 8 -113
49 -231 71 -203 105 -333 108 -406 5 -118 24 -124 87 -27 46 70 165 198 233
249 207 155 380 333 445 458 27 52 71 211 85 309 10 62 36 186 57 267 18 68
67 186 74 178 1 -2 5 -28 9 -58 15 -138 19 -161 25 -158 3 2 77 39 164 82
l157 79 -16 25 c-9 13 -31 64 -49 112 l-33 89 37 14 c20 8 39 13 42 11 4 -2
34 -51 68 -110 36 -60 67 -104 74 -101 7 2 80 24 162 47 83 23 177 51 209 61
33 11 65 19 73 19 7 0 13 2 13 4 0 3 -45 50 -100 106 -99 102 -117 130 -82
130 11 0 45 9 76 20 l58 20 41 -39 c130 -121 196 -166 229 -156 69 21 259 97
368 148 l84 40 -44 22 c-86 43 -118 62 -151 88 l-33 26 29 11 c16 6 55 18 87
27 57 16 58 16 95 -8 38 -25 138 -71 180 -83 17 -5 62 20 204 115 l182 122
-73 28 c-40 16 -74 30 -77 32 -2 3 13 14 33 26 34 20 41 21 117 11 45 -7 85
-14 89 -16 10 -7 70 47 175 157 l42 44 -122 0 c-174 0 -248 15 -366 74 -34 17
-89 38 -122 47 -68 17 -221 24 -322 13z"/>
<path d="M6604 4640 c-276 -140 -627 -278 -988 -389 -88 -28 -420 -114 -478
-125 -24 -4 -99 -19 -108 -21 -3 -1 -27 -5 -55 -10 -27 -4 -59 -9 -70 -11 -11
-3 -36 -7 -55 -9 -19 -3 -48 -7 -65 -10 -86 -13 -181 -22 -340 -33 -142 -9
-685 -9 -797 1 -135 11 -191 17 -214 22 -12 3 -39 7 -60 11 -94 14 -284 69
-343 99 -19 10 -34 8 -90 -12 -91 -33 -373 -145 -445 -177 l-59 -26 35 -28
c19 -15 59 -47 89 -71 158 -130 472 -304 690 -385 161 -59 326 -103 459 -121
25 -3 52 -8 60 -10 8 -2 47 -7 85 -10 39 -4 88 -9 110 -11 54 -6 515 -6 590 0
158 12 212 17 235 21 14 2 54 7 90 11 36 3 67 7 70 9 3 2 34 6 70 10 36 4 68
9 71 11 3 2 21 6 40 9 70 11 147 27 239 50 52 12 107 25 121 29 22 5 25 10 21
31 -2 14 -11 25 -21 26 -90 4 -130 58 -78 107 18 17 141 79 322 162 11 5 97
41 190 81 278 116 420 198 576 332 138 117 217 215 265 325 14 31 40 87 58
123 27 54 31 69 21 82 -7 10 -16 16 -21 16 -5 -1 -104 -50 -220 -109z"/>
<path d="M2195 3855 c-66 -24 -178 -64 -250 -90 -71 -25 -131 -48 -134 -50 -7
-8 129 -212 215 -320 270 -340 620 -606 989 -753 168 -67 434 -148 545 -167
19 -3 51 -10 70 -15 19 -5 51 -11 70 -14 19 -3 44 -7 55 -10 11 -2 42 -7 68
-10 27 -4 56 -9 65 -11 10 -1 49 -6 87 -10 39 -4 86 -9 105 -12 48 -7 515 -12
565 -6 34 4 41 9 43 29 1 18 -6 27 -31 38 -62 26 -88 80 -65 132 11 24 67 52
172 85 77 25 227 68 258 73 13 3 23 5 23 6 0 1 46 13 144 35 14 4 28 8 31 10
4 2 21 7 40 10 67 12 273 87 356 129 88 46 227 136 279 181 121 104 181 179
273 337 31 54 64 110 72 123 13 22 13 26 -1 41 -15 14 -28 11 -160 -41 -310
-123 -402 -153 -639 -205 -96 -21 -191 -41 -210 -44 -19 -3 -60 -10 -90 -16
-86 -16 -101 -19 -305 -45 -181 -24 -292 -30 -540 -30 -291 0 -382 6 -588 41
-302 51 -678 194 -1003 382 -124 71 -291 176 -319 199 -20 17 -60 43 -65 42
-3 0 -59 -20 -125 -44z"/>
<path d="M1585 3646 c-50 -18 -127 -52 -172 -75 l-83 -43 6 -37 c40 -279 148
-592 278 -801 220 -356 641 -718 1099 -947 112 -55 117 -57 131 -38 12 16 11
23 -5 49 -27 44 -24 82 6 102 25 16 30 16 195 -12 19 -3 113 -25 210 -49 315
-77 402 -88 585 -71 165 16 251 46 416 143 113 67 125 77 121 99 -2 13 -12 24
-21 25 -9 0 -25 2 -36 4 -11 2 -42 7 -69 10 -27 4 -58 9 -70 11 -12 2 -37 7
-56 10 -19 3 -42 7 -50 9 -8 2 -31 7 -50 10 -82 13 -441 118 -520 152 -19 8
-50 21 -68 29 -18 8 -37 14 -43 14 -26 0 -351 157 -452 219 -37 22 -69 41 -72
41 -2 0 -35 21 -72 47 -284 194 -593 460 -778 668 -66 74 -165 201 -165 210 0
3 -8 14 -17 25 -10 10 -47 66 -81 124 -35 58 -67 106 -70 106 -4 -1 -48 -16
-97 -34z"/>
<path d="M1194 3215 c-76 -220 -149 -355 -280 -515 -49 -61 -52 -68 -45 -100
40 -170 185 -464 329 -665 127 -177 390 -465 425 -465 23 0 40 26 30 47 -5 10
-8 24 -7 31 1 6 2 18 3 25 0 8 11 19 24 24 31 14 111 -23 313 -145 188 -113
289 -164 379 -191 190 -57 333 -62 505 -16 163 43 161 52 -22 144 -371 185
-761 486 -999 771 -30 36 -57 67 -60 70 -16 14 -218 314 -272 405 -7 11 -19
31 -28 45 -9 14 -38 66 -64 115 -26 50 -58 108 -70 130 -36 66 -82 186 -96
247 -11 52 -14 57 -37 55 -13 -1 -26 -6 -28 -12z"/>
</g>
</svg>
