<?xml version="1.0" encoding="UTF-8" standalone="no"?>
<!-- Created with Inkscape (http://www.inkscape.org/) -->

<svg
   width="512"
   height="512"
   viewBox="0 0 135.46666 135.46667"
   version="1.1"
   id="svg2530"
   sodipodi:docname="wings.svg"
   inkscape:export-filename="./wings.png"
   inkscape:export-xdpi="96"
   inkscape:export-ydpi="96"
   inkscape:version="1.1.1 (3bf5ae0d25, 2021-09-20, custom)"
   xmlns:inkscape="http://www.inkscape.org/namespaces/inkscape"
   xmlns:sodipodi="http://sodipodi.sourceforge.net/DTD/sodipodi-0.dtd"
   xmlns="http://www.w3.org/2000/svg"
   xmlns:svg="http://www.w3.org/2000/svg">
  <sodipodi:namedview
     id="namedview2532"
     pagecolor="#505050"
     bordercolor="#ffffff"
     borderopacity="1"
     inkscape:pageshadow="0"
     inkscape:pageopacity="0"
     inkscape:pagecheckerboard="1"
     inkscape:document-units="mm"
     showgrid="false"
     width="512mm"
     units="px"
     inkscape:zoom="0.64052329"
     inkscape:cx="177.97948"
     inkscape:cy="560.47923"
     inkscape:window-width="1440"
     inkscape:window-height="2511"
     inkscape:window-x="1440"
     inkscape:window-y="49"
     inkscape:window-maximized="1"
     inkscape:current-layer="layer1" />
  <defs
     id="defs2527" />
  <g
     inkscape:label="Lag 1"
     inkscape:groupmode="layer"
     id="layer1">
    <path
       d="m 6.0911065,90.435148 c 0,0 0.0063,-0.01453 0.01263,-0.02337 -0.0063,0.01547 -0.01263,0.02337 -0.01263,0.02337 z M 25.134602,59.689751 c 0.03568,1.347948 0.473413,4.771122 0.473413,4.771122 0,0 2.703466,-1.481619 5.212017,-2.584171 -0.913417,-1.574297 -1.717678,-4.431379 -1.717678,-4.431379 l 2.264599,-1.047304 2.536369,4.345607 c 0,0 5.376873,-1.549456 7.980088,-2.291324 -1.456991,-1.237559 -3.167975,-3.240377 -4.005611,-4.333018 1.930403,-0.546042 4.105863,-1.235333 4.105863,-1.235333 0,0 3.055471,3.013251 4.700747,3.890906 2.116446,-0.6884 5.953854,-2.195637 7.993445,-3.214646 -1.637445,-0.728836 -3.233684,-1.804988 -4.325345,-2.860536 1.637476,-0.582689 4.454552,-1.398074 4.454552,-1.398074 0,0 2.079692,1.543776 4.462351,2.215688 2.587616,-1.627875 6.050791,-4.034935 6.050791,-4.034935 0,0 -1.663084,-0.571328 -3.083321,-1.26318 1.055981,-0.656096 1.873598,-1.029035 2.579817,-1.506792 1.214175,0.255857 3.431978,0.523428 3.431978,0.523428 0,0 1.479283,-1.200913 2.867218,-2.730428 0,0 -5.117323,0.353333 -8.514757,-1.637344 -3.398571,-1.991571 -10.553243,-1.588667 -17.672266,1.660849 -7.117918,3.248175 -19.806521,6.299298 -27.429048,4.844304 -7.6214205,-1.45689 -13.16536,6.018596 -12.3310395,13.495307 0.833216,7.476261 0.730722,8.26302 -0.3174604,10.662282 -1.6931756,3.872081 -2.7413575,4.195007 -0.2652346,10.749282 2.313604,6.124304 1.617394,7.923166 1.516037,8.131581 0.118092,-0.230691 1.801195,-3.461825 4.7953765,-5.802382 3.106719,-2.427111 8.496949,-6.601285 9.757918,-10.63221 1.262075,-4.030145 1.674199,-12.284479 4.479055,-14.2873 z M 86.232846,45.007345 c 3.625789,-0.766263 9.965082,-1.998472 16.668634,-5.820206 -1.49934,0.579238 -1.82905,-0.486892 -0.68062,-1.441518 3.72049,-3.08766 7.01767,-4.701947 9.73453,-7.639006 1.25759,-1.363657 2.28127,-2.682532 2.73463,-4.015775 0.24944,-0.724046 0.36649,-1.428042 0.75415,-2.149969 -1.82794,1.537315 -3.74944,3.027621 -5.80908,4.449199 -5.25878,3.628915 -11.060057,6.940583 -17.093039,9.289832 -3.507696,1.364544 -7.02878,2.583281 -10.566599,3.599392 -1.269842,0.364139 -4.346501,1.094756 -7.020981,1.434502 -1.451433,0.937692 -2.888405,2.464982 -4.295285,3.461936 4.321998,0.888012 9.697767,0.0713 15.57366,-1.168387 z m -7.902128,3.359569 c -1.954905,0.232807 -6.626666,0.400785 -10.049739,-0.07262 -1.601796,1.395068 -4.735259,3.891352 -6.940811,5.190177 5.586314,2.618592 14.319385,2.625053 23.353244,2.076004 5.555086,-0.337293 17.667808,-1.925849 25.644548,-5.314155 -2.31247,0.569099 -2.72017,-1.306735 -0.90562,-2.597761 5.87593,-4.181972 10.98766,-6.008571 15.3353,-10.210149 2.01505,-1.946342 3.66923,-3.882996 4.46901,-5.9942 0.43776,-1.151788 0.67502,-2.297895 1.31778,-3.407466 -2.88951,2.08859 -5.91158,4.075816 -9.14192,5.910658 -8.24519,4.678441 -17.27795,8.683749 -26.582463,11.010828 -5.40807,1.355857 -10.45299,2.686874 -16.499329,3.408688 z M 32.70364,90.53217 c -2.602109,-3.691626 -4.961371,-7.528061 -6.989816,-11.566896 -0.725164,-1.451544 -1.352286,-2.78479 -1.747738,-4.354742 -0.09915,-0.391985 -0.181559,-0.921096 -0.293021,-1.462459 -0.265235,0.894586 -0.565865,1.764441 -0.908934,2.609905 -0.661665,1.761322 -1.590681,3.464387 -2.674512,5.080455 -0.86217,1.314531 -1.826835,2.57905 -2.887268,3.792104 0.363119,1.476826 0.834321,2.920574 1.431383,4.308621 2.840473,6.579899 7.709391,13.218612 13.102968,17.846132 -1.106123,-1.58211 0.0982,-3.45101 1.791186,-2.6882 5.474885,2.46976 8.466857,5.65095 13.603125,6.85059 2.379313,0.55608 4.661751,0.82239 6.915203,0.28283 1.229742,-0.29587 2.406057,-0.74493 3.642492,-0.84631 -2.725759,-1.19746 -5.382431,-2.56201 -7.93664,-4.18501 -6.52534,-4.14156 -12.574994,-9.316814 -17.048491,-15.66702 z m 17.856068,-6.214869 c -4.089192,-3.143355 -8.034683,-6.461598 -11.544621,-10.243228 -3.212528,-3.460156 -5.761148,-7.756527 -6.579902,-9.249061 -3.061028,0.980356 -4.647258,1.795852 -6.133203,2.669942 1.004734,7.196115 3.700433,14.406489 8.376646,19.855538 5.331184,6.211415 12.891349,11.795359 20.342326,15.012238 -1.739939,-1.35107 -1.066023,-3.795999 1.038172,-3.539799 6.810467,0.83633 11.148063,3.286939 17.156511,2.853629 2.783669,-0.20284 5.362381,-0.68707 7.635883,-2.039469 1.239783,-0.73619 2.369303,-1.62955 3.682593,-2.15777 C 81.15673,97.100705 77.797154,96.514672 74.463219,95.61051 65.942873,93.307822 57.592971,89.718901 50.559708,84.317301 Z M 120.8667,49.435159 c -10.26363,4.143763 -21.829407,7.554684 -32.973011,8.374413 -6.47965,0.47776 -12.234136,0.582579 -18.84634,-0.012 -6.865061,-0.618335 -10.693565,-2.427109 -10.91412,-2.609903 -2.811518,0.99907 -7.262723,2.782561 -10.01409,3.950945 6.877312,5.879357 16.37009,10.525161 26.725039,11.504629 10.057538,0.953398 21.867265,-0.09267 31.761042,-2.827452 -2.77028,0.194032 -3.96105,-2.089483 -1.66419,-3.343862 7.43652,-4.057992 13.63992,-5.221923 19.30751,-9.672014 2.62326,-2.064197 4.83105,-4.197123 6.06859,-6.767034 0.67506,-1.396738 1.12283,-2.836921 2.0318,-4.132738 -3.66255,2.040693 -7.46323,3.912182 -11.48223,5.535156 z m -13.4071,20.87466 c 4.26408,-0.984702 9.23215,-3.099803 13.22886,-4.691478 -1.14954,1.373236 -1.87916,3.048451 -2.82377,4.610051 -1.73549,2.871004 -4.32756,4.953913 -7.31284,6.840552 -6.44959,4.072807 -12.763247,3.921428 -20.864765,7.055541 -2.502962,0.968214 -1.798954,4.104997 0.952413,4.576183 C 80.397053,89.559608 68.620732,87.826136 58.960856,84.064444 49.02141,80.194924 41.242931,72.925292 35.697855,63.863925 c 3.547828,-1.2145 5.905985,-2.241419 9.183116,-3.335284 2.47625,1.967175 9.200926,5.858078 11.329623,6.846234 5.855875,2.71784 11.735116,4.924283 18.55114,5.65969 11.164798,1.200913 21.809349,-0.214998 32.697866,-2.724746"
       style="fill:#d72312;fill-opacity:1;fill-rule:nonzero;stroke:#d8d8d8;stroke-width:1.011;stroke-miterlimit:4;stroke-dasharray:none;stroke-opacity:1"
       id="path22" />
  </g>
</svg>
